<?xml version="1.0" encoding="utf-8"?>
<svg xmlns="http://www.w3.org/2000/svg"
	xmlns:xlink="http://www.w3.org/1999/xlink"
	width="29px" height="31px" viewBox="0 0 29 31">
<style type="text/css"><![CDATA[
.style0 {
  font-size: 11px;
  font-family: "Montserrat-Regular";
  fill: rgb(255,255,255);
  text-transform: uppercase;
}
]]></style>
<g><path fillRule="evenodd" d="M 18 27.88C 18 27.88 16.71 13.05 16.71 13.05 16.68 12.72 16.41 12.47 16.09 12.47 16.09 12.47 13.44 12.47 13.44 12.47 13.41 10 11.43 8 9 8 6.57 8 4.59 10 4.56 12.47 4.56 12.47 1.91 12.47 1.91 12.47 1.59 12.47 1.32 12.72 1.29 13.05 1.29 13.05 0 27.88 0 27.88 0 27.9-0 27.92-0 27.94-0 29.63 1.51 31 3.38 31 3.38 31 14.62 31 14.62 31 16.49 31 18 29.63 18 27.94 18 27.92 18 27.9 18 27.88ZM 9 9.27C 10.74 9.27 12.16 10.7 12.2 12.47 12.2 12.47 5.8 12.47 5.8 12.47 5.84 10.7 7.26 9.27 9 9.27ZM 14.62 29.73C 14.62 29.73 3.38 29.73 3.38 29.73 2.21 29.73 1.26 28.94 1.24 27.97 1.24 27.97 2.47 13.75 2.47 13.75 2.47 13.75 4.55 13.75 4.55 13.75 4.55 13.75 4.55 15.68 4.55 15.68 4.55 16.03 4.83 16.31 5.17 16.31 5.52 16.31 5.79 16.03 5.79 15.68 5.79 15.68 5.79 13.75 5.79 13.75 5.79 13.75 12.2 13.75 12.2 13.75 12.2 13.75 12.2 15.68 12.2 15.68 12.2 16.03 12.48 16.31 12.82 16.31 13.17 16.31 13.44 16.03 13.44 15.68 13.44 15.68 13.44 13.75 13.44 13.75 13.44 13.75 15.52 13.75 15.52 13.75 15.52 13.75 16.76 27.97 16.76 27.97 16.74 28.94 15.79 29.73 14.62 29.73Z" fill="rgb(101,101,101)"/><path fillRule="evenodd" d="M 17.5 0.58C 23.53 0.58 28.42 5.47 28.42 11.5 28.42 17.53 23.53 22.42 17.5 22.42 11.47 22.42 6.58 17.53 6.58 11.5 6.58 5.47 11.47 0.58 17.5 0.58Z" fill="rgb(211,189,82)"/><text transform="translate(14.57,15.00)" class="style0"><tspan x="0.00" fill="rgb(255,255,255)">5</tspan></text></g></svg>